<svg width="118" height="48" viewBox="0 0 118 48" fill="none" xmlns="http://www.w3.org/2000/svg">
<rect width="118" height="48" rx="8" fill="#E82C2A"/>
<path d="M59.7116 18.7266V30H61.7272V26.2734H64.1725C66.4538 26.2734 68.0475 24.75 68.0475 22.5234C68.0475 20.2578 66.5084 18.7266 64.2584 18.7266H59.7116ZM61.7272 20.375H63.7272C65.1803 20.375 66.0006 21.125 66.0006 22.5234C66.0006 23.8828 65.1569 24.6484 63.7194 24.6484H61.7272V20.375ZM77.2216 28.2734H72.0497V18.7266H70.0341V30H77.2216V28.2734ZM86.4269 30H88.5909L84.5831 18.7266H82.3175L78.3175 30H80.3566L81.3253 27.0859H85.4738L86.4269 30ZM83.3409 20.8438H83.4738L85.005 25.5312H81.7941L83.3409 20.8438ZM94.1713 30V25.5547L98.1244 18.7266H95.9134L93.2338 23.5625H93.1009L90.4134 18.7266H88.2025L92.1556 25.5547V30H94.1713Z" fill="white"/>
<path d="M40 24.5L25 32.7272L25 16.2728L40 24.5Z" fill="white"/>
</svg>
