<svg width="118" height="31" viewBox="0 0 118 31" fill="none" xmlns="http://www.w3.org/2000/svg">
<path d="M90.9284 28.1296C92.57 28.2509 94.2034 28.3884 95.8368 28.5339V0H90.9284V28.1296ZM11.9772 17.5456L5.58235 0H0.918945V31C2.55236 30.7736 4.18578 30.5472 5.82736 30.337V13.4786L11.5117 29.6416C13.3002 29.4395 15.0888 29.2454 16.8856 29.0595V0H11.9772V17.5456ZM21.6062 28.6148C26.1307 28.2105 30.6716 27.8709 35.237 27.6122V22.8255C32.3214 22.9953 29.4139 23.1894 26.5146 23.4158V16.1711C28.4175 16.1549 30.9248 16.0983 33.1463 16.1226V11.3359C31.374 11.3279 28.5237 11.3602 26.5146 11.3845V4.83516H35.237V0H21.6062V28.6148ZM38.3814 4.83516H43.5185V27.224C45.1519 27.1594 46.7853 27.1108 48.4269 27.0704V4.83516H53.564V0H38.3814V4.83516ZM56.7083 26.933H61.6167V15.88H68.2729V11.0934H61.6167V4.83516H70.4127V0H56.7083V26.933ZM117.463 0H112.073L108.52 8.15832L105.327 0H100.018L105.727 14.5702L99.4957 28.8654C101.219 29.0352 102.934 29.2131 104.657 29.3991L108.283 21.0871L111.869 30.248C113.739 30.4825 115.601 30.7332 117.463 31H117.471L111.077 14.6753L117.463 0ZM78.4654 0H73.557V27.1755C78.0162 27.3292 82.4591 27.5475 86.8857 27.8385V23.0519C84.0844 22.8659 81.2831 22.7123 78.4654 22.5829V0Z" fill="#E82C2A"/>
</svg>
